<?xml version="1.0" encoding="iso-8859-1"?>
<!-- Generator: Adobe Illustrator 19.0.0, SVG Export Plug-In . SVG Version: 6.00 Build 0)  -->
<svg version="1.1" id="Layer_1" xmlns="http://www.w3.org/2000/svg" xmlns:xlink="http://www.w3.org/1999/xlink" x="0px" y="0px"
	 viewBox="0 0 512 512" style="enable-background:new 0 0 512 512;" xml:space="preserve">
<g>
	<g>
		<path d="M301.456,129.709l-64.823-10.688c-3.42-0.564-6.65,1.751-7.214,5.172l-9.8,59.441l4.701-2.93
			c16.14-10.059,37.378-5.132,47.438,11.007c8.904,14.284,6.06,32.558-5.9,43.546l17.714,2.92c3.42,0.564,6.65-1.751,7.214-5.172
			l15.841-96.084C307.192,133.502,304.876,130.273,301.456,129.709z" fill="#5B92E5"/>
	</g>
</g>
<g>
	<g>
		<path d="M493.73,120.769c0-14.943-12.113-27.056-27.056-27.056h-48.249c-14.943,0-27.056,12.113-27.056,27.056v17.143
			l13.878-1.628l37.642-19.734l-39.685,39.432L342.52,163.1c-10.6,1.243-18.185,10.844-16.942,21.445
			c1.241,10.583,10.823,18.187,21.446,16.942l67.316-7.897c4.297-0.503,8.3-2.436,11.369-5.485l44.422-44.139l-30.802,57.848
			c-5.383,10.109-14.589,10.015-22.739,10.97l-25.222,2.958c0,0-0.405,9.028-0.421,215.289
			c-0.001,12.808,10.381,23.191,23.188,23.192h0.001c12.807,0,23.189-10.382,23.19-23.188l0.013-171.448h10.003
			c0,0.022-0.003,0.044-0.003,0.066l0.484,171.446c0.036,12.786,10.411,23.124,23.188,23.124c0.022,0,0.046,0,0.067,0
			c12.808-0.037,23.161-10.448,23.124-23.256L493.73,120.769z" fill="#5B92E5"/>
	</g>
</g>
<g>
	<g>
		<path d="M442.339,0c-22.121,0-40.052,17.931-40.052,40.052c0,22.137,17.99,40.052,40.052,40.052
			c22.052,0,40.052-17.905,40.052-40.052C482.391,17.931,464.458,0,442.339,0z" fill="#5B92E5"/>
	</g>
</g>
<g>
	<g>
		<path d="M258.256,200.128c-5.411-8.682-16.835-11.331-25.518-5.921l-26.983,16.82c-0.092-18.346-0.073-14.377-0.164-32.818
			c-0.12-24.05-19.784-43.615-43.834-43.615c-12.365,0-87.05,0-99.441,0c-24.05,0-43.713,19.565-43.834,43.615L17.797,314.29
			c-0.052,10.23,8.2,18.564,18.43,18.615c0.031,0,0.063,0,0.095,0c10.045-0.001,18.469-8.142,18.52-18.43
			c0.161-31.956,0.543-107.943,0.685-136.081c0.01-1.973,1.615-3.565,3.586-3.559s3.567,1.606,3.567,3.577
			c0.002,93.972,0.009,301.051,0.009,311.36c0,12.341,10.058,22.228,22.227,22.228c12.142,0,22.228-9.91,22.228-22.228V312.105
			h9.597v177.667c0,12.277,9.953,22.228,22.228,22.228c0.154,0,0.304-0.02,0.459-0.023c12.117-0.247,21.768-10.15,21.768-22.204
			c0-236.789-0.357-283.743-0.399-312.799c-0.003-2.168,1.751-3.928,3.919-3.932c2.168-0.003,3.928,1.751,3.933,3.918
			c0.001,0.442-0.032,0.92-0.104,1.434c0.032,6.542,0.299,59.383,0.331,65.995c0.073,14.487,16.044,23.278,28.322,15.626
			l55.138-34.37C261.016,220.233,263.667,208.809,258.256,200.128z" fill="#5B92E5"/>
	</g>
</g>
<g>
	<g>
		<circle cx="112.193" cy="83.973" r="38.389" fill="#5B92E5"/>
	</g>
</g>
<g>
</g>
<g>
</g>
<g>
</g>
<g>
</g>
<g>
</g>
<g>
</g>
<g>
</g>
<g>
</g>
<g>
</g>
<g>
</g>
<g>
</g>
<g>
</g>
<g>
</g>
<g>
</g>
<g>
</g>
</svg>
