<?xml version="1.0" encoding="UTF-8" standalone="no"?>
<!-- Generator: Adobe Illustrator 19.0.0, SVG Export Plug-In . SVG Version: 6.00 Build 0)  -->

<svg
   xmlns:dc="http://purl.org/dc/elements/1.1/"
   xmlns:cc="http://creativecommons.org/ns#"
   xmlns:rdf="http://www.w3.org/1999/02/22-rdf-syntax-ns#"
   xmlns:svg="http://www.w3.org/2000/svg"
   xmlns="http://www.w3.org/2000/svg"
   xmlns:sodipodi="http://sodipodi.sourceforge.net/DTD/sodipodi-0.dtd"
   xmlns:inkscape="http://www.inkscape.org/namespaces/inkscape"
   version="1.1"
   id="Capa_1"
   x="0px"
   y="0px"
   viewBox="0 0 512 512"
   style="enable-background:new 0 0 512 512;"
   xml:space="preserve"
   sodipodi:docname="word-inverted.svg"
   inkscape:version="0.92.3 (2405546, 2018-03-11)"><metadata
   id="metadata57"><rdf:RDF><cc:Work
       rdf:about=""><dc:format>image/svg+xml</dc:format><dc:type
         rdf:resource="http://purl.org/dc/dcmitype/StillImage" /><dc:title></dc:title></cc:Work></rdf:RDF></metadata><defs
   id="defs55" /><sodipodi:namedview
   pagecolor="#d0d0d0"
   bordercolor="#666666"
   borderopacity="1"
   objecttolerance="10"
   gridtolerance="10"
   guidetolerance="10"
   inkscape:pageopacity="0"
   inkscape:pageshadow="2"
   inkscape:window-width="1920"
   inkscape:window-height="1017"
   id="namedview53"
   showgrid="true"
   inkscape:zoom="1.3037281"
   inkscape:cx="136.37229"
   inkscape:cy="274.45559"
   inkscape:window-x="-8"
   inkscape:window-y="-8"
   inkscape:window-maximized="1"
   inkscape:current-layer="Capa_1"
   inkscape:pagecheckerboard="false"><inkscape:grid
     type="xygrid"
     id="grid836" /></sodipodi:namedview>
<g
   id="g6">
	<path
   style="fill:#ffffff;fill-opacity:1"
   d="M294.656,13.014c-2.531-2.056-5.863-2.842-9.045-2.133l-277.333,64   C3.397,76.003-0.047,80.369,0,85.377v362.667c0.002,5.263,3.843,9.739,9.045,10.539l277.333,42.667   c5.823,0.895,11.269-3.099,12.164-8.921c0.082-0.535,0.124-1.076,0.124-1.617V21.377C298.676,18.124,297.199,15.045,294.656,13.014   z"
   id="path2" />
	<path
   style="fill:#ffffff;fill-opacity:1"
   d="M501.334,458.71H288c-5.891,0-10.667-4.776-10.667-10.667c0-5.891,4.776-10.667,10.667-10.667   h202.667V74.71H288c-5.891,0-10.667-4.776-10.667-10.667S282.109,53.377,288,53.377h213.333c5.891,0,10.667,4.776,10.667,10.667   v384C512,453.935,507.225,458.71,501.334,458.71z"
   id="path4" />
</g>
<path
   style="fill:#1565c0;fill-opacity:1"
   d="M181.334,352.044c-4.753-0.005-8.928-3.155-10.24-7.723L138.667,230.87L106.24,344.321  c-2.342,5.661-8.83,8.352-14.492,6.01c-2.722-1.126-4.884-3.288-6.01-6.01L43.072,194.988c-1.786-5.614,1.318-11.612,6.932-13.398  c5.614-1.786,11.612,1.318,13.398,6.932c0.063,0.198,0.12,0.398,0.172,0.599L96,302.55L128.427,189.1  c2.342-5.661,8.83-8.352,14.492-6.01c2.722,1.126,4.884,3.288,6.01,6.01l32.405,113.451l32.427-113.429  c1.535-5.614,7.331-8.921,12.945-7.386c0.08,0.022,0.159,0.045,0.239,0.068c5.66,1.622,8.935,7.523,7.317,13.184l-42.667,149.333  C190.281,348.897,186.094,352.048,181.334,352.044z"
   id="path8" />
<g
   id="g20">
	<path
   style="fill:#ffffff;fill-opacity:1"
   d="M458.667,138.71H288c-5.891,0-10.667-4.776-10.667-10.667c0-5.891,4.776-10.667,10.667-10.667   h170.667c5.891,0,10.667,4.776,10.667,10.667C469.334,133.935,464.558,138.71,458.667,138.71z"
   id="path10" />
	<path
   style="fill:#ffffff;fill-opacity:1"
   d="M458.667,202.71H288c-5.891,0-10.667-4.776-10.667-10.667s4.776-10.667,10.667-10.667h170.667   c5.891,0,10.667,4.776,10.667,10.667S464.558,202.71,458.667,202.71z"
   id="path12" />
	<path
   style="fill:#ffffff;fill-opacity:1"
   d="M458.667,266.71H288c-5.891,0-10.667-4.776-10.667-10.667c0-5.891,4.776-10.667,10.667-10.667   h170.667c5.891,0,10.667,4.776,10.667,10.667C469.334,261.935,464.558,266.71,458.667,266.71z"
   id="path14" />
	<path
   style="fill:#ffffff;fill-opacity:1"
   d="M458.667,330.71H288c-5.891,0-10.667-4.776-10.667-10.667c0-5.891,4.776-10.667,10.667-10.667   h170.667c5.891,0,10.667,4.776,10.667,10.667C469.334,325.935,464.558,330.71,458.667,330.71z"
   id="path16" />
	<path
   style="fill:#ffffff;fill-opacity:1"
   d="M458.667,394.71H288c-5.891,0-10.667-4.776-10.667-10.667c0-5.891,4.776-10.667,10.667-10.667   h170.667c5.891,0,10.667,4.776,10.667,10.667C469.334,389.935,464.558,394.71,458.667,394.71z"
   id="path18" />
</g>
<g
   id="g22">
</g>
<g
   id="g24">
</g>
<g
   id="g26">
</g>
<g
   id="g28">
</g>
<g
   id="g30">
</g>
<g
   id="g32">
</g>
<g
   id="g34">
</g>
<g
   id="g36">
</g>
<g
   id="g38">
</g>
<g
   id="g40">
</g>
<g
   id="g42">
</g>
<g
   id="g44">
</g>
<g
   id="g46">
</g>
<g
   id="g48">
</g>
<g
   id="g50">
</g>
</svg>