<?xml version="1.0" encoding="UTF-8" standalone="no"?>
<!-- Generator: Adobe Illustrator 19.0.0, SVG Export Plug-In . SVG Version: 6.00 Build 0)  -->

<svg
   xmlns:dc="http://purl.org/dc/elements/1.1/"
   xmlns:cc="http://creativecommons.org/ns#"
   xmlns:rdf="http://www.w3.org/1999/02/22-rdf-syntax-ns#"
   xmlns:svg="http://www.w3.org/2000/svg"
   xmlns="http://www.w3.org/2000/svg"
   xmlns:sodipodi="http://sodipodi.sourceforge.net/DTD/sodipodi-0.dtd"
   xmlns:inkscape="http://www.inkscape.org/namespaces/inkscape"
   version="1.1"
   id="Capa_1"
   x="0px"
   y="0px"
   viewBox="0 0 512 512"
   style="enable-background:new 0 0 512 512;"
   xml:space="preserve"
   sodipodi:docname="survey.svg"
   inkscape:version="0.92.4 (5da689c313, 2019-01-14)"><metadata
   id="metadata49"><rdf:RDF><cc:Work
       rdf:about=""><dc:format>image/svg+xml</dc:format><dc:type
         rdf:resource="http://purl.org/dc/dcmitype/StillImage" /></cc:Work></rdf:RDF></metadata><defs
   id="defs47" /><sodipodi:namedview
   pagecolor="#ffffff"
   bordercolor="#666666"
   borderopacity="1"
   objecttolerance="10"
   gridtolerance="10"
   guidetolerance="10"
   inkscape:pageopacity="0"
   inkscape:pageshadow="2"
   inkscape:window-width="1920"
   inkscape:window-height="1001"
   id="namedview45"
   showgrid="false"
   inkscape:zoom="0.921875"
   inkscape:cx="389.95147"
   inkscape:cy="253.80859"
   inkscape:window-x="-9"
   inkscape:window-y="-9"
   inkscape:window-maximized="1"
   inkscape:current-layer="g8" />
<g
   id="g12">
	<g
   id="g10">
		<g
   id="g8">
			<path
   d="M405.333,42.667h-44.632c-4.418-12.389-16.147-21.333-30.035-21.333h-32.219C288.427,8.042,272.677,0,256,0     s-32.427,8.042-42.448,21.333h-32.219c-13.888,0-25.617,8.944-30.035,21.333h-44.631C83.135,42.667,64,61.802,64,85.333v384     C64,492.865,83.135,512,106.667,512h298.667C428.865,512,448,492.865,448,469.333v-384C448,61.802,428.865,42.667,405.333,42.667     z M170.667,53.333c0-5.885,4.781-10.667,10.667-10.667h37.917c3.792,0,7.302-2.021,9.219-5.302     c5.844-10.042,16.135-16.031,27.531-16.031s21.688,5.99,27.531,16.031c1.917,3.281,5.427,5.302,9.219,5.302h37.917     c5.885,0,10.667,4.781,10.667,10.667V64c0,11.76-9.573,21.333-21.333,21.333H192c-11.76,0-21.333-9.573-21.333-21.333V53.333z      M426.667,469.333c0,11.76-9.573,21.333-21.333,21.333H106.667c-11.76,0-21.333-9.573-21.333-21.333v-384     c0-11.76,9.573-21.333,21.333-21.333h42.667c0,23.531,19.135,42.667,42.667,42.667h128c23.531,0,42.667-19.135,42.667-42.667     h42.667c11.76,0,21.333,9.573,21.333,21.333V469.333z"
   id="path2"
   style="fill:#5b92e5;fill-opacity:1" />
			<path
   d="M301.798,329.382C313.033,314.93,320,297.013,320,277.333C320,230.281,281.719,192,234.667,192     c-47.052,0-85.333,38.281-85.333,85.333c0,47.052,38.281,85.333,85.333,85.333c19.68,0,37.596-6.967,52.048-18.202l57.744,57.744     c2.083,2.083,4.813,3.125,7.542,3.125c2.729,0,5.458-1.042,7.542-3.125c4.167-4.167,4.167-10.917,0-15.083L301.798,329.382z      M234.667,341.333c-35.292,0-64-28.708-64-64c0-35.292,28.708-64,64-64c35.292,0,64,28.708,64,64     C298.667,312.625,269.958,341.333,234.667,341.333z"
   id="path4"
   style="fill:#5b92e5;fill-opacity:1" />
			<path
   d="M259.125,248.458L224,283.583l-13.792-13.792c-4.167-4.167-10.917-4.167-15.083,0c-4.167,4.167-4.167,10.917,0,15.083     l21.333,21.333c2.083,2.083,4.813,3.125,7.542,3.125s5.458-1.042,7.542-3.125l42.667-42.667c4.167-4.167,4.167-10.917,0-15.083     C270.042,244.292,263.292,244.292,259.125,248.458z"
   id="path6"
   style="fill:#5b92e5;fill-opacity:1" />
		</g>
	</g>
</g>
<g
   id="g14">
</g>
<g
   id="g16">
</g>
<g
   id="g18">
</g>
<g
   id="g20">
</g>
<g
   id="g22">
</g>
<g
   id="g24">
</g>
<g
   id="g26">
</g>
<g
   id="g28">
</g>
<g
   id="g30">
</g>
<g
   id="g32">
</g>
<g
   id="g34">
</g>
<g
   id="g36">
</g>
<g
   id="g38">
</g>
<g
   id="g40">
</g>
<g
   id="g42">
</g>
</svg>