<?xml version="1.0" encoding="iso-8859-1"?>
<!-- Generator: Adobe Illustrator 16.0.0, SVG Export Plug-In . SVG Version: 6.00 Build 0)  -->
<!DOCTYPE svg PUBLIC "-//W3C//DTD SVG 1.1//EN" "http://www.w3.org/Graphics/SVG/1.1/DTD/svg11.dtd">
<svg xmlns="http://www.w3.org/2000/svg" xmlns:xlink="http://www.w3.org/1999/xlink" version="1.1" id="Capa_1" x="0px" y="0px" width="512px" height="512px" viewBox="0 0 578.518 578.518" style="enable-background:new 0 0 578.518 578.518;" xml:space="preserve">
<g>
	<g>
		<polygon points="421.282,128.683 421.84,132.981 415.426,134.312 414.543,143.461 422.281,143.461 432.529,142.462     437.804,136.165 432.203,133.981 429.102,130.431 424.477,122.937 422.281,112.347 413.567,114.107 411.127,117.854     411.127,122.06 415.31,124.924   " fill="#5B92E5"/>
		<polygon points="413.893,132.203 414.334,126.469 409.233,124.268 402.088,125.912 396.801,134.405 396.801,139.93     402.971,139.93   " fill="#5B92E5"/>
		<path d="M266.951,156.55l-1.568,4.055h-7.616v3.916h1.807c0,0,0.11,0.831,0.261,1.923l4.653-0.377l2.917-1.795l0.761-3.666    l3.771-0.319l1.476-3.085l-3.451-0.714L266.951,156.55z" fill="#5B92E5"/>
		<path d="M44.715,177.086v8.278c2.893-6.756,6.094-13.35,9.51-19.81L44.715,177.086z" fill="#5B92E5"/>
		<polygon points="235.54,286.731 235.104,291.367 225.833,291.919 246.096,293.987 244.144,290.932   " fill="#5B92E5"/>
		<polygon points="213.697,284.303 197.373,280.998 191.011,288.347 218.635,291.182   " fill="#5B92E5"/>
		<path d="M578.181,286.278c-0.093-8.47-0.512-16.858-1.313-25.125c-2.672-27.571-9.26-53.992-19.158-78.763    c-0.744-1.83-1.418-3.712-2.185-5.537c-13.152-31.085-31.649-59.377-54.26-83.817c-1.464-1.604-2.974-3.16-4.484-4.711    c-4.299-4.433-8.68-8.766-13.222-12.92C432.146,28.576,363.839,0,288.986,0C213.505,0,144.705,29.087,93.142,76.619    C81.134,87.698,70.084,99.787,60.075,112.73c-28.042,36.285-47.433,79.46-55.7,126.411l-0.25,0.104l-2.051,12.269l172.671-69.044    l-9.138-21.948l89.15,9.138l-56.333,69.671l-9.114-21.872L0.268,297.438l0.203,5.693c-0.023,0-0.046,0.023-0.069,0.023    c-0.053,0.023-0.087,0.047-0.134,0.07c0.069,1.604,0.273,3.184,0.383,4.787l0.035,1.185l0.047-0.023    c1.476,21.437,5.164,42.257,11.066,62.172c0.128,0.976,0.523,2.347,1.058,3.822c0.081,0.256,0.14,0.534,0.227,0.79    c0.012,0,0.035-0.023,0.058-0.023c1.144,2.998,2.533,6.02,2.533,6.02s101.675-42.688,158.165-65.553l5.571-2.254l-9.126-21.931    l89.15,9.15l-56.339,69.689l-9.074-21.82L29.181,416.32l2.603,5.055c0,0.012,0.012,0.023,0.023,0.034l2.847,5.53l0.215-0.081    c10.875,19.996,24.033,38.54,39.114,55.34l-0.186,0.093l8.778,9.598l92.125-39.213l-9.091-21.844l89.15,9.145l-56.333,69.677    l-9.126-21.925l-74.563,32.975l10.992,7.133c0.058-0.022,0.145-0.069,0.204-0.092c46.486,31.904,102.569,50.773,163.068,50.773    c112.195,0,209.595-64.252,257.557-157.852c10.248-20.008,18.241-41.352,23.609-63.693c1.371-5.67,2.556-11.375,3.578-17.149    c2.904-16.429,4.508-33.3,4.508-50.57C578.25,288.253,578.192,287.278,578.181,286.278z M55.758,218.141l-24.887,10.172    c3.497-14.802,7.994-29.221,13.855-42.949v-8.278l9.51-11.531c3.282-6.222,6.826-12.281,10.602-18.189l0.413,4.804l-11.015,13.385    c-3.416,6.46-6.617,13.053-9.51,19.81v15.11l11.043,5.304v12.362H55.758z M64.623,214.533l-0.714-5.443h5.96l0.5,3.102    L64.623,214.533z M523.747,170.661l1.685-1.882c2.185,4.27,4.241,8.615,6.204,13.013l-2.741-0.104l-5.147,0.703V170.661z     M481.932,120.189l0.058-12.92c4.543,4.816,8.935,9.766,13.106,14.918l-5.217,7.744l-18.195-0.168l-1.139-3.793L481.932,120.189z     M148.557,105.794l-13.071,0.808l-2.486-2.975l9.255-2.655c0,0,5.803-0.976,6.291-0.976    C149.057,100.008,148.557,105.794,148.557,105.794z M148.795,89.731l-2.725,3.654h-13.071v-5.298v-0.488h5.792l0.5-1.999h9.492    v4.13H148.795z M168.57,138.047l-6.768,2.167l-4.287-8.784l6.954-3.306l6.268,1.499L168.57,138.047z M192.092,151.287    l-14.465-1.487l4.031-1.673h10.434V151.287z M194.387,151.525l-2.237-0.238h2.237V151.525z M197.198,151.804v-1.348l1.673,1.522    L197.198,151.804z M33.77,361.806c-5.664-19.938-8.97-40.828-9.8-62.346l73.825-30.848l17.951,4.45v-3.735l9.254,1.307    l-0.866,6.617l7.267,1.342l11.241,3.067l15.9,18.102l2.068,0.163l3.212,7.714C140.244,317.189,70.009,346.748,33.77,361.806z     M159.159,446.344l-61.927,26.061c-15.599-16.359-29.123-34.693-40.189-54.597l120.951-49.263l6.355,7.97l1.545,8.599    c0,0,7.268,1.975,8.162,1.975c0.261,0,1.864,1.08,3.927,2.533l1.83,4.414l1.568-1.951c4.357,3.184,9.011,6.692,9.011,6.692v24.667    l-63.461-6.484L159.159,446.344z M542.162,215.811h-21.169l-12.896-9.614l-13.582,1.319v8.284h-4.311l-4.624-3.311l-23.517-5.949    v-15.227l-29.79,2.318l-9.237,4.961h-11.815l-5.81-0.581l-14.361,7.971v15.017l-29.337,21.163l2.429,9.04h5.96l-1.557,8.615    l-4.194,1.551l-0.221,22.505l25.352,28.89h11.05l0.674-1.755h19.855l5.705-5.298h11.271l6.181,6.192l16.754,1.731l-2.207,22.285    l18.613,32.892l-9.807,18.753l0.674,8.818l7.738,7.703v21.228l10.12,13.64v17.638h8.749    c-48.706,59.813-122.891,98.12-205.889,98.12c-50.019,0-96.714-14.094-136.694-38.237c11.933-5.112,23.726-10.155,30.627-13.106    l12.183,29.279l25.375-31.417l11.462,20.147l15.714,13.709l15.802,0.303l1.533-5.089l-11.601-9.771l0.668-4.845l2.08-5.949    l0.441-6.076l-7.842-0.221l-3.962-4.973l6.535-6.286l0.866-4.729l-7.279-2.103l0.442-4.381l10.357-1.592l15.778-7.587l5.293-9.702    l16.551-21.18l-3.759-16.557l5.095-8.819l15.209,0.453l10.247-8.11l3.323-31.939l11.363-14.453l1.975-9.271l-10.363-3.312    l-6.832-11.224l-23.389-0.244l-18.537-7.064l-0.883-13.21l-6.146-10.771l11.874-14.681l-120.643-12.327l-0.668-10.317    l-15.453-2.638l6.188-11.694l-1.761-6.733l-20.31,13.583l-11.816-1.441l64.867-27.101l12.194,29.308l82.689-102.296l-33.456-3.416    l5.316-5.008l4.305,1.139l1.975,2.475l4.462-4.95l1.098-0.488l-4.903-0.674l-4.95-1.656v-4.793l2.632-2.144h5.804l2.655,1.167    l2.294,4.625l2.806-0.413v-0.418l0.813,0.273l8.134-1.249l1.155-3.974l4.642,1.167v4.293l-4.311,2.974h0.018l0.628,4.711    l14.755,4.561c0,0,0.012,0.069,0.023,0.174l3.387-0.285l0.238-6.39l-11.682-5.315l-0.669-3.073l9.702-3.294l0.424-9.277    l-10.137-6.175l-0.663-15.656l-13.896,6.826h-5.095l1.336-11.909l-18.933-4.473l-7.813,5.914v18.05l-14.076,4.45l-5.641,11.741    l-6.054,0.976v-15.052l-13.233-1.818l-6.611-4.322l-2.655-9.742l23.662-13.85l11.59-3.532L228,99.996l6.448-0.343l0.5-3.904    l6.722-0.976l0.116-1.354l-2.888-1.203l-0.668-4.142l8.296-0.697l5.008-5.217l0.261-0.378l0.07,0.023l1.534-1.568l17.434-2.213    l7.697,6.553l-20.205,10.759l25.712,6.065l3.329-8.604h11.246l3.975-7.506l-7.947-1.975v-9.48l-24.928-11.044l-17.202,1.976    l-9.707,5.095l0.662,12.339l-10.149-1.54l-1.569-6.826l9.719-8.831l-17.643-0.877l-5.077,1.534l-2.179,5.983l6.611,1.121    l-1.319,6.611l-11.241,0.668l-1.761,4.403l-16.312,0.442c0,0-0.441-9.249-1.121-9.249c-0.65,0,12.792-0.238,12.792-0.238    l9.719-9.481l-5.304-2.655l-7.058,6.843l-11.706-0.668l-7.041-9.708h-15.018L152.152,71.42h14.361l1.295,4.212l-3.735,3.521    l15.883,0.441l2.429,5.722l-17.881-0.65l-0.872-4.416l-11.241-2.428l-5.96-3.305l-13.385,0.116    c43.831-31.934,97.713-50.838,155.952-50.838c67.138,0,128.473,25.091,175.25,66.319l-3.16,5.647l-12.223,4.787l-5.159,5.612    l1.185,6.536l6.298,0.866l3.834,9.533l10.875-4.392l1.801,12.729h-3.288l-8.946-1.319l-9.922,1.667l-9.608,13.559l-13.734,2.167    l-1.975,11.747l5.798,1.365l-1.673,7.558l-13.629-2.73l-12.514,2.73l-2.648,6.96l2.172,14.604l7.332,3.428l12.292-0.07l8.319-0.75    l2.557-6.617l12.989-16.894l8.54,1.737l8.435-7.604l1.568,5.949l20.728,13.995l-2.532,3.393l-9.342-0.5l3.591,5.101l5.751,1.249    l6.738-2.806l-0.14-8.116l2.998-1.487l-2.394-2.556l-13.826-7.709l-3.647-10.23h11.502l3.648,3.637l9.922,8.534l0.418,10.312    l10.248,10.922l3.811-14.965l7.111-3.881l1.324,12.246l6.948,7.61l13.826-0.238c2.695,6.89,5.089,13.902,7.192,21.047    L542.162,215.811z M546.461,229.208l0.837-0.976c0.349,1.51,0.721,3.009,1.046,4.531L546.461,229.208z" fill="#5B92E5"/>
	</g>
</g>
<g>
</g>
<g>
</g>
<g>
</g>
<g>
</g>
<g>
</g>
<g>
</g>
<g>
</g>
<g>
</g>
<g>
</g>
<g>
</g>
<g>
</g>
<g>
</g>
<g>
</g>
<g>
</g>
<g>
</g>
</svg>
