<?xml version="1.0" encoding="iso-8859-1"?>
<!-- Generator: Adobe Illustrator 16.0.0, SVG Export Plug-In . SVG Version: 6.00 Build 0)  -->
<!DOCTYPE svg PUBLIC "-//W3C//DTD SVG 1.1//EN" "http://www.w3.org/Graphics/SVG/1.1/DTD/svg11.dtd">
<svg xmlns="http://www.w3.org/2000/svg" xmlns:xlink="http://www.w3.org/1999/xlink" version="1.1" id="Capa_1" x="0px" y="0px" width="512px" height="512px" viewBox="0 0 95.547 95.547" style="enable-background:new 0 0 95.547 95.547;" xml:space="preserve">
<g>
	<g>
		<path d="M6.982,34.295h58.922L55.037,45.164c-0.375,0.375-0.586,0.884-0.586,1.414c0,0.53,0.211,1.039,0.586,1.414l6.307,6.304    c0.391,0.391,0.902,0.586,1.414,0.586s1.022-0.195,1.414-0.586l25.451-25.451c0.78-0.781,0.78-2.047,0-2.828L64.17,0.562    c-0.75-0.75-2.078-0.75-2.828,0l-6.303,6.305c-0.781,0.781-0.781,2.047,0,2.828l10.864,10.867H6.982c-1.104,0-2,0.896-2,2v9.733    C4.982,33.4,5.877,34.295,6.982,34.295z" fill="#5B92E5"/>
		<path d="M88.564,61.229H29.643l10.865-10.867c0.781-0.78,0.781-2.047,0-2.828l-6.304-6.305c-0.375-0.375-0.884-0.586-1.414-0.586    c-0.53,0-1.039,0.211-1.414,0.586L5.924,66.683c-0.781,0.78-0.781,2.047,0,2.827l25.451,25.451    c0.391,0.391,0.902,0.586,1.414,0.586c0.512,0,1.023-0.195,1.414-0.586l6.306-6.304c0.375-0.375,0.586-0.884,0.586-1.414    s-0.211-1.038-0.586-1.413L29.643,74.963h58.922c1.104,0,2-0.896,2-2v-9.733C90.564,62.125,89.67,61.229,88.564,61.229z" fill="#5B92E5"/>
	</g>
</g>
<g>
</g>
<g>
</g>
<g>
</g>
<g>
</g>
<g>
</g>
<g>
</g>
<g>
</g>
<g>
</g>
<g>
</g>
<g>
</g>
<g>
</g>
<g>
</g>
<g>
</g>
<g>
</g>
<g>
</g>
</svg>
