<?xml version="1.0" encoding="iso-8859-1"?>
<!-- Generator: Adobe Illustrator 18.0.0, SVG Export Plug-In . SVG Version: 6.00 Build 0)  -->
<!DOCTYPE svg PUBLIC "-//W3C//DTD SVG 1.1//EN" "http://www.w3.org/Graphics/SVG/1.1/DTD/svg11.dtd">
<svg xmlns="http://www.w3.org/2000/svg" xmlns:xlink="http://www.w3.org/1999/xlink" version="1.1" id="Capa_1" x="0px" y="0px" viewBox="0 0 483.72 483.72" style="enable-background:new 0 0 483.72 483.72;" xml:space="preserve" width="512px" height="512px">
<g>
	<path d="M257.85,174.498v-69.529c0-8.857-7.17-16.029-16.027-16.029c-8.859,0-16.029,7.172-16.029,16.029v69.529   c3.897-4.695,9.566-7.842,16.029-7.842C248.287,166.656,253.951,169.802,257.85,174.498z" fill="#5B92E5"/>
	<path d="M184.031,128.371c-3.021-8.33-12.256-12.588-20.538-9.582c-8.327,3.023-12.614,12.227-9.579,20.537l19.629,53.957   c2.365,6.51,8.516,10.549,15.057,10.549c1.816,0,3.68-0.314,5.48-0.971c8.327-3.021,12.615-12.225,9.58-20.537L184.031,128.371z" fill="#5B92E5"/>
	<path d="M117.193,160.537c-5.683-6.779-15.778-7.654-22.587-1.988c-6.776,5.697-7.671,15.809-1.989,22.586l36.895,43.984   c3.178,3.789,7.717,5.73,12.305,5.73c3.631,0,7.279-1.238,10.284-3.742c6.776-5.697,7.669-15.809,1.987-22.588L117.193,160.537z" fill="#5B92E5"/>
	<path d="M115.08,242.337L65.369,213.63c-7.656-4.447-17.471-1.814-21.9,5.869c-4.43,7.67-1.799,17.469,5.869,21.9l49.713,28.705   c2.521,1.457,5.276,2.145,8.002,2.145c5.539,0,10.924-2.863,13.897-8.014C125.381,256.566,122.749,246.769,115.08,242.337z" fill="#5B92E5"/>
	<path d="M29.271,312.808l56.539,9.984c0.939,0.172,1.877,0.25,2.799,0.25c7.641,0,14.402-5.463,15.765-13.242   c1.551-8.719-4.273-17.029-12.991-18.565l-56.539-9.984c-8.688-1.6-17.047,4.271-18.565,12.99   C14.73,302.959,20.553,311.271,29.271,312.808z" fill="#5B92E5"/>
	<path d="M467.69,345.017h-72.581c-8.859,0-16.029,7.172-16.029,16.031c0,8.861,7.17,16.029,16.029,16.029h72.581   c8.86,0,16.029-7.168,16.029-16.029C483.72,352.189,476.551,345.017,467.69,345.017z" fill="#5B92E5"/>
	<path d="M88.609,345.017H16.031C7.171,345.017,0,352.189,0,361.048c0,8.861,7.171,16.029,16.031,16.029h72.578   c8.861,0,16.032-7.168,16.032-16.029C104.642,352.189,97.471,345.017,88.609,345.017z" fill="#5B92E5"/>
	<path d="M379.33,309.769c1.362,7.762,8.125,13.242,15.762,13.242c0.928,0,1.85-0.078,2.803-0.25l56.553-9.953   c8.723-1.537,14.545-9.85,12.994-18.566c-1.533-8.703-9.703-14.59-18.565-12.99l-56.553,9.953   C383.604,292.738,377.783,301.05,379.33,309.769z" fill="#5B92E5"/>
	<path d="M434.366,241.382c7.671-4.43,10.302-14.227,5.87-21.896c-4.444-7.656-14.275-10.303-21.897-5.871l-49.729,28.693   c-7.668,4.428-10.301,14.226-5.869,21.896c2.971,5.135,8.357,8.014,13.899,8.014c2.724,0,5.478-0.689,7.997-2.143L434.366,241.382z   " fill="#5B92E5"/>
	<path d="M389.084,158.533c-6.794-5.699-16.906-4.805-22.572,1.971l-36.908,43.986c-5.697,6.777-4.807,16.891,1.974,22.57   c3.005,2.521,6.649,3.758,10.281,3.758c4.586,0,9.126-1.941,12.288-5.73l36.909-43.982   C396.754,174.326,395.861,164.214,389.084,158.533z" fill="#5B92E5"/>
	<path d="M320.179,118.742c-8.278-3.021-17.517,1.27-20.536,9.582l-19.643,53.953c-3.038,8.311,1.249,17.516,9.581,20.537   c1.797,0.656,3.662,0.971,5.476,0.971c6.543,0,12.696-4.039,15.058-10.551l19.645-53.955   C332.795,130.966,328.507,121.765,320.179,118.742z" fill="#5B92E5"/>
	<path d="M273.392,325.437L246.799,186.8c-0.455-2.395-2.551-4.115-4.977-4.115c-2.443,0-4.525,1.721-4.979,4.115l-26.609,138.654   c8.453-7.498,19.441-12.197,31.588-12.197S264.956,317.957,273.392,325.437z" fill="#5B92E5"/>
	<path d="M241.822,327.33c-18.645,0-33.732,15.092-33.732,33.719c0,18.643,15.088,33.732,33.732,33.732   c18.625,0,33.715-15.09,33.715-33.732C275.537,342.421,260.447,327.33,241.822,327.33z" fill="#5B92E5"/>
</g>
<g>
</g>
<g>
</g>
<g>
</g>
<g>
</g>
<g>
</g>
<g>
</g>
<g>
</g>
<g>
</g>
<g>
</g>
<g>
</g>
<g>
</g>
<g>
</g>
<g>
</g>
<g>
</g>
<g>
</g>
</svg>
