<?xml version="1.0" encoding="UTF-8" standalone="no"?>
<!-- Generator: Adobe Illustrator 19.0.0, SVG Export Plug-In . SVG Version: 6.00 Build 0)  -->

<svg
   xmlns:dc="http://purl.org/dc/elements/1.1/"
   xmlns:cc="http://creativecommons.org/ns#"
   xmlns:rdf="http://www.w3.org/1999/02/22-rdf-syntax-ns#"
   xmlns:svg="http://www.w3.org/2000/svg"
   xmlns="http://www.w3.org/2000/svg"
   xmlns:sodipodi="http://sodipodi.sourceforge.net/DTD/sodipodi-0.dtd"
   xmlns:inkscape="http://www.inkscape.org/namespaces/inkscape"
   version="1.1"
   id="Capa_1"
   x="0px"
   y="0px"
   viewBox="0 0 512 512"
   style="enable-background:new 0 0 512 512;"
   xml:space="preserve"
   sodipodi:docname="icon.svg"
   inkscape:version="0.92.3 (2405546, 2018-03-11)"
   inkscape:export-filename="C:\Apps\stats4sd\sampling-decision-assistant-update\src\assets\icons\icon.png"
   inkscape:export-xdpi="25.4"
   inkscape:export-ydpi="25.4"><metadata
   id="metadata49"><rdf:RDF><cc:Work
       rdf:about=""><dc:format>image/svg+xml</dc:format><dc:type
         rdf:resource="http://purl.org/dc/dcmitype/StillImage" /><dc:title></dc:title></cc:Work></rdf:RDF></metadata><defs
   id="defs47" /><sodipodi:namedview
   pagecolor="#ffffff"
   bordercolor="#666666"
   borderopacity="1"
   objecttolerance="10"
   gridtolerance="10"
   guidetolerance="10"
   inkscape:pageopacity="0"
   inkscape:pageshadow="2"
   inkscape:window-width="1920"
   inkscape:window-height="1017"
   id="namedview45"
   showgrid="false"
   inkscape:zoom="0.921875"
   inkscape:cx="213.68028"
   inkscape:cy="253.80859"
   inkscape:window-x="-8"
   inkscape:window-y="-8"
   inkscape:window-maximized="1"
   inkscape:current-layer="g8"
   inkscape:pagecheckerboard="true" />
<g
   id="g12">
	<g
   id="g10">
		<g
   id="g8">
			<path
   d="M405.333,42.667h-44.632c-4.418-12.389-16.147-21.333-30.035-21.333h-32.219C288.427,8.042,272.677,0,256,0     s-32.427,8.042-42.448,21.333h-32.219c-13.888,0-25.617,8.944-30.035,21.333h-44.631C83.135,42.667,64,61.802,64,85.333v384     C64,492.865,83.135,512,106.667,512h298.667C428.865,512,448,492.865,448,469.333v-384C448,61.802,428.865,42.667,405.333,42.667     z M170.667,53.333c0-5.885,4.781-10.667,10.667-10.667h37.917c3.792,0,7.302-2.021,9.219-5.302     c5.844-10.042,16.135-16.031,27.531-16.031s21.688,5.99,27.531,16.031c1.917,3.281,5.427,5.302,9.219,5.302h37.917     c5.885,0,10.667,4.781,10.667,10.667V64c0,11.76-9.573,21.333-21.333,21.333H192c-11.76,0-21.333-9.573-21.333-21.333V53.333z      M426.667,469.333c0,11.76-9.573,21.333-21.333,21.333H106.667c-11.76,0-21.333-9.573-21.333-21.333v-384     c0-11.76,9.573-21.333,21.333-21.333h42.667c0,23.531,19.135,42.667,42.667,42.667h128c23.531,0,42.667-19.135,42.667-42.667     h42.667c11.76,0,21.333,9.573,21.333,21.333V469.333z"
   id="path2"
   style="fill:#5b92e5;fill-opacity:1" />
			<path
   d="M301.798,329.382C313.033,314.93,320,297.013,320,277.333C320,230.281,281.719,192,234.667,192     c-47.052,0-85.333,38.281-85.333,85.333c0,47.052,38.281,85.333,85.333,85.333c19.68,0,37.596-6.967,52.048-18.202l57.744,57.744     c2.083,2.083,4.813,3.125,7.542,3.125c2.729,0,5.458-1.042,7.542-3.125c4.167-4.167,4.167-10.917,0-15.083L301.798,329.382z      M234.667,341.333c-35.292,0-64-28.708-64-64c0-35.292,28.708-64,64-64c35.292,0,64,28.708,64,64     C298.667,312.625,269.958,341.333,234.667,341.333z"
   id="path4"
   style="fill:#5b92e5;fill-opacity:1" />
			<path
   d="M259.125,248.458L224,283.583l-13.792-13.792c-4.167-4.167-10.917-4.167-15.083,0c-4.167,4.167-4.167,10.917,0,15.083     l21.333,21.333c2.083,2.083,4.813,3.125,7.542,3.125s5.458-1.042,7.542-3.125l42.667-42.667c4.167-4.167,4.167-10.917,0-15.083     C270.042,244.292,263.292,244.292,259.125,248.458z"
   id="path6"
   style="fill:#5b92e5;fill-opacity:1" />
		<path
   style="opacity:1;fill:#ffffff;fill-opacity:1;stroke:none;stroke-width:19.92515564;stroke-miterlimit:4;stroke-dasharray:none;stroke-opacity:1;paint-order:stroke fill markers"
   d="m 98.109984,488.28805 c -5.317803,-2.41554 -9.798797,-7.51151 -11.365407,-12.92519 -0.81375,-2.81204 -1.066736,-63.00266 -0.842456,-200.43725 l 0.320535,-196.41835 2.984261,-4.509377 c 1.641344,-2.480158 5.058293,-5.617326 7.59322,-6.971485 4.313113,-2.304065 6.115123,-2.484299 28.073143,-2.807833 l 23.46419,-0.345727 1.20069,6.81645 c 3.17705,18.036373 17.08426,32.300642 34.73086,35.622542 7.84544,1.47688 135.58725,1.47688 143.4327,0 17.82692,-3.35584 31.52134,-17.401871 34.73086,-35.622542 l 1.20069,-6.81645 23.46418,0.345727 c 21.95803,0.323534 23.76003,0.503768 28.07314,2.807833 2.53494,1.354159 5.95188,4.491327 7.59322,6.971485 l 2.98427,4.509377 0.32053,196.41835 c 0.22428,137.43459 -0.0287,197.62521 -0.84246,200.43725 -1.5666,5.41368 -6.04759,10.50965 -11.3654,12.92519 -4.18697,1.90187 -11.27716,1.99131 -157.87538,1.99131 -146.59823,0 -153.68841,-0.0894 -157.875386,-1.99131 z m 260.763256,-85.3124 c 3.82514,-3.21865 5.05967,-7.55671 3.41088,-11.98563 -0.6507,-1.74786 -14.30685,-16.32387 -30.42259,-32.4718 l -29.24189,-29.3003 2.85658,-4.20385 c 4.72595,-6.95485 10.91561,-21.31119 12.76755,-29.61307 2.1444,-9.61303 2.22281,-26.6257 0.16743,-36.32373 -3.44384,-16.24921 -11.46283,-30.40327 -24.46984,-43.19094 -9.39942,-9.24092 -20.16815,-15.80697 -33.07464,-20.16672 -12.52426,-4.23064 -33.01727,-4.96641 -46.11006,-1.65552 -42.51776,10.75184 -70.81212,51.37729 -65.07854,93.44069 4.47429,32.82477 26.51404,60.2352 56.74097,70.5677 25.64811,8.7673 52.97089,5.40584 74.63241,-9.18189 l 5.80779,-3.91119 30.43744,30.36872 c 28.6745,28.60976 30.66569,30.36871 34.37812,30.36871 2.63203,0 5.02251,-0.9103 7.19839,-2.74118 z"
   id="path832"
   inkscape:connector-curvature="0" /><path
   style="opacity:1;fill:#ffffff;fill-opacity:1;stroke:none;stroke-width:19.92515564;stroke-miterlimit:4;stroke-dasharray:none;stroke-opacity:1;paint-order:stroke fill markers"
   d="m 219.10401,338.9153 c -28.10392,-7.41453 -47.72881,-32.71864 -47.72881,-61.54098 0,-17.40685 5.92755,-31.61378 18.43279,-44.17902 9.35652,-9.40142 17.61497,-14.18275 29.94254,-17.33561 10.61717,-2.71542 19.54742,-2.71542 30.16459,0 11.87502,3.03712 20.57119,8.01536 29.49502,16.88484 15.98348,15.88611 22.22198,38.06794 16.73746,59.51222 -3.15457,12.33423 -7.9337,20.58671 -17.33561,29.93466 -8.85712,8.80629 -17.3719,13.71358 -29.04178,16.73755 -8.09411,2.0974 -22.68913,2.09089 -30.6662,-0.0137 z m 34.36514,-53.87085 c 14.60765,-14.65923 23.24317,-24.14286 23.71081,-26.03948 1.80116,-7.30503 -3.15322,-13.83051 -10.50062,-13.83051 -4.49612,0 -4.98584,0.39256 -23.67726,18.97962 l -19.08618,18.97963 -7.01611,-7.16566 c -7.69568,-7.85971 -11.95427,-10.28644 -16.51981,-9.41368 -4.53885,0.86765 -8.39461,6.11135 -8.39461,11.41635 0,4.1949 0.66532,5.10004 12.72032,17.30537 13.26943,13.43491 16.49327,15.39863 22.53392,13.72592 2.16499,-0.5995 10.94445,-8.61849 26.22954,-23.95756 z"
   id="path834"
   inkscape:connector-curvature="0" /><path
   style="opacity:1;fill:#ffffff;fill-opacity:1;stroke:none;stroke-width:19.92515564;stroke-miterlimit:4;stroke-dasharray:none;stroke-opacity:1;paint-order:stroke fill markers"
   d="m 182.40519,82.30452 c -2.7468,-1.359633 -5.90124,-4.14113 -7.59322,-6.695508 -2.55379,-3.855434 -2.93865,-5.636109 -3.27043,-15.131612 -0.36771,-10.523548 -0.30914,-10.831786 2.64362,-13.913807 l 3.01966,-3.151844 h 21.59922 c 23.59635,0 27.26998,-0.747886 30.15526,-6.139077 4.39954,-8.220619 17.14345,-15.555838 27.02607,-15.555838 9.88262,0 22.62653,7.335219 27.02607,15.555838 2.88662,5.393695 6.55463,6.139077 30.21029,6.139077 h 21.65424 l 2.95163,2.95163 c 2.88177,2.881769 2.94304,3.2111 2.5886,13.914242 -0.32273,9.745368 -0.68631,11.450617 -3.27451,15.357632 -1.7513,2.643684 -4.80547,5.311891 -7.66451,6.695928 -4.69046,2.270608 -5.65917,2.300896 -73.56311,2.300051 -68.16708,-8.47e-4 -68.85396,-0.02258 -73.50888,-2.326712 z"
   id="path836"
   inkscape:connector-curvature="0" /></g>
	</g>
</g>
<g
   id="g14">
</g>
<g
   id="g16">
</g>
<g
   id="g18">
</g>
<g
   id="g20">
</g>
<g
   id="g22">
</g>
<g
   id="g24">
</g>
<g
   id="g26">
</g>
<g
   id="g28">
</g>
<g
   id="g30">
</g>
<g
   id="g32">
</g>
<g
   id="g34">
</g>
<g
   id="g36">
</g>
<g
   id="g38">
</g>
<g
   id="g40">
</g>
<g
   id="g42">
</g>
</svg>